<svg width="10" height="8" viewBox="0 0 10 8" fill="none" xmlns="http://www.w3.org/2000/svg">
<path d="M8.46541 0.663175C7.81708 0.350826 7.13289 0.128091 6.42995 0.000549708C6.42357 -0.000700598 6.41697 0.000194421 6.4111 0.00310733C6.40522 0.00602023 6.40038 0.0108027 6.39724 0.0167743C6.30933 0.1809 6.21195 0.394967 6.14378 0.563204C5.37516 0.442417 4.61045 0.442417 3.85762 0.563204C3.78945 0.391207 3.68854 0.1809 3.60025 0.0167743C3.59698 0.0109388 3.59211 0.00627332 3.58627 0.00338686C3.58044 0.000500402 3.57391 -0.000473008 3.56754 0.0005935C2.86453 0.127839 2.18029 0.350554 1.53204 0.663131C1.5265 0.665618 1.52182 0.669851 1.51867 0.675245C0.222251 2.70808 -0.132915 4.69092 0.0413349 6.64919C0.0418276 6.65399 0.0432321 6.65863 0.0454651 6.66284C0.0476981 6.66706 0.0507143 6.67076 0.0543349 6.67373C0.909667 7.33303 1.73821 7.73326 2.55137 7.99854C2.5577 8.00052 2.56444 8.00043 2.57071 7.99827C2.57698 7.99611 2.58248 7.992 2.58646 7.98647C2.77879 7.71078 2.95025 7.42006 3.09729 7.11437C3.09931 7.11018 3.10046 7.1056 3.10067 7.10091C3.10088 7.09622 3.10015 7.09154 3.09851 7.08717C3.09687 7.08281 3.09437 7.07885 3.09117 7.07557C3.08798 7.07229 3.08415 7.06976 3.07996 7.06815C2.80796 6.95987 2.549 6.82784 2.29987 6.67793C2.29533 6.67513 2.29151 6.67119 2.28876 6.66648C2.28601 6.66176 2.28441 6.65641 2.28409 6.65089C2.28378 6.64537 2.28477 6.63985 2.28697 6.63483C2.28917 6.6298 2.29251 6.62543 2.29671 6.62208C2.34912 6.58084 2.40158 6.53798 2.45162 6.49464C2.45607 6.4908 2.46145 6.48833 2.46717 6.48752C2.47288 6.4867 2.47869 6.48758 2.48396 6.49005C4.12054 7.2743 5.89228 7.2743 7.50953 6.49005C7.5148 6.48742 7.52067 6.48642 7.52646 6.48715C7.53225 6.48789 7.53772 6.49033 7.54224 6.49421C7.59232 6.5375 7.64474 6.58084 7.69757 6.62208C7.70178 6.62539 7.70514 6.62974 7.70737 6.63474C7.7096 6.63974 7.71062 6.64524 7.71035 6.65075C7.71008 6.65626 7.70852 6.66162 7.70582 6.66635C7.70311 6.67108 7.69933 6.67504 7.69482 6.67788C7.44561 6.83066 7.18454 6.96106 6.91441 7.06771C6.91021 7.06939 6.9064 7.07199 6.90323 7.07532C6.90006 7.07865 6.89759 7.08265 6.89599 7.08706C6.89439 7.09146 6.89369 7.09617 6.89394 7.10088C6.89419 7.10558 6.89539 7.11018 6.89745 7.11437C7.04762 7.41962 7.21908 7.71035 7.40787 7.98603C7.41172 7.99172 7.41719 7.99599 7.42348 7.99823C7.42978 8.00048 7.43659 8.00059 7.44295 7.99854C8.26003 7.73322 9.08857 7.33298 9.9439 6.67373C9.94759 6.67091 9.95066 6.66729 9.9529 6.66313C9.95515 6.65897 9.95653 6.65435 9.95695 6.64959C10.1654 4.38559 9.6077 2.41901 8.47841 0.675639C8.47563 0.669975 8.47102 0.665538 8.46541 0.663131V0.663175ZM3.34166 5.4568C2.84896 5.4568 2.44296 4.982 2.44296 4.39893C2.44296 3.81589 2.84108 3.3411 3.34171 3.3411C3.8462 3.3411 4.24825 3.82005 4.24037 4.39897C4.24037 4.982 3.84225 5.4568 3.34166 5.4568ZM6.66449 5.4568C6.17178 5.4568 5.76579 4.982 5.76579 4.39893C5.76579 3.81589 6.16387 3.3411 6.66449 3.3411C7.16899 3.3411 7.57103 3.82005 7.56316 4.39897C7.56316 4.982 7.16899 5.4568 6.66449 5.4568Z" fill="white"/>
</svg>
