<svg width="58" height="82" viewBox="0 0 58 82" fill="none" xmlns="http://www.w3.org/2000/svg">
<path fill-rule="evenodd" clip-rule="evenodd" d="M27.7786 82L25.1358 82V69.3175L28.2011 75.4832L27.7786 82ZM31.9491 17.6734L31.5669 23.5682H25.1358V17.2314C28.6119 17.3629 30.7066 17.5261 31.5331 17.6282L31.5538 17.6308L31.5745 17.6328C31.7007 17.6451 31.8256 17.6587 31.9491 17.6734ZM32.1538 14.5155C32.0722 14.5065 31.9901 14.4979 31.9077 14.4898C30.9504 14.373 28.7265 14.2028 25.1358 14.0689V0.0014106L32.4407 10.0896L32.1538 14.5155ZM23.5395 14.0149V0L16.2204 10.0896L16.4535 13.8795C19.1755 13.9044 21.5332 13.9534 23.5395 14.0149ZM27.0949 47.3519C27.138 47.421 27.181 47.4907 27.224 47.5609C26.7132 48.0897 26.0162 48.6757 25.1358 49.2122V48.9592C25.9538 48.4894 26.6021 47.9399 27.0949 47.3519ZM23.5395 46.2264V42.7522C21.4453 40.6189 19.4807 39.5277 18.0038 39.0794L18.5116 47.3349C20.9891 47.3168 22.5562 46.8188 23.5395 46.2264ZM19.1195 57.216L20.6442 82L23.5395 82V66.1066L19.1195 57.216ZM23.5395 49.6877V50.0255C22.4359 50.4871 21.1421 50.8361 19.661 50.9583L19.5704 50.9658L19.3222 50.4665C20.9747 50.3837 22.3734 50.1035 23.5395 49.6877ZM16.6481 17.0417L17.0496 23.5682H23.5395V17.1767C21.5975 17.1164 19.3051 17.0676 16.6481 17.0417ZM28.6116 69.1516L28.714 67.573L28.029 67.9797L28.6116 69.1516ZM29.5639 54.4626L29.3064 58.435L28.0471 55.2262C28.532 55.0225 29.0433 54.7695 29.5639 54.4626Z" fill="#BABABA"/>
<path d="M0 50.8641L16.8934 81.6099L13.0669 57.9986L0 50.8641Z" fill="white"/>
<path d="M34.546 54.3539C33.7506 55.1401 32.5452 58.5885 32.0419 60.2144C31.978 60.4182 31.9416 60.8817 31.9315 61.088C31.7252 61.5539 32.0419 61.7917 32.2261 61.8524C37.6393 64.2549 41.7269 64.6917 42.4266 64.8009C42.9863 64.8882 43.2735 64.5461 43.3472 64.3641C44.0837 63.4031 44.587 62.4834 44.7465 62.1436L45.0411 61.3428C45.3357 60.6439 45.4585 60.2265 45.483 60.1052C45.5714 59.8722 45.4953 59.7654 45.4462 59.7412C44.9159 59.7994 43.7032 60.4449 43.1631 60.7604L43.3104 60.0688C43.7523 58.6127 44.3537 57.0839 44.5992 56.5015C44.6287 56.3559 44.9307 55.3973 45.078 54.9363C45.078 54.8198 45.6426 53.6258 45.9249 53.0434C46.1606 52.5775 45.9004 52.728 45.7408 52.8614L45.0043 53.553C44.474 53.9025 42.6966 55.9798 41.8742 56.9747C41.5501 57.3533 41.4937 57.8605 41.5059 58.0667L41.6901 61.1608C39.6868 61.7723 37.2711 60.906 36.3136 60.3964C34.0747 59.5519 34.2023 56.0162 34.546 54.3539Z" fill="white"/>
<path d="M57.4881 38.9927C58.7843 41.7592 57.3162 45.0231 56.4201 46.3093C55.772 44.562 52.6885 43.3244 51.2278 42.924C52.6419 40.6526 55.2295 39.0655 56.3465 38.5559C56.9357 38.1191 57.353 38.6651 57.4881 38.9927Z" fill="white"/>
<path d="M38.6337 51.1142C42.9054 50.3279 49.3497 45.4357 49.7548 44.7077C49.7916 44.4165 49.1288 44.1883 48.6501 44.1252C47.5453 43.9796 44.3416 43.737 42.9422 43.7612C42.353 43.5865 41.9357 44.2709 41.8006 44.6349C41.7417 45.3338 39.6648 49.2456 38.6337 51.1142Z" fill="white"/>
<path d="M51.3383 44.7527C50.1304 44.345 50.0494 45.0924 50.1599 45.5171C50.3366 47.8176 49.6198 52.2755 49.2393 54.2169L51.7434 52.1784C53.3342 50.8389 54.3702 48.7082 54.6894 47.8104C55.1018 46.6746 54.5912 46.148 54.2843 46.0267C53.371 45.3278 51.9398 44.8862 51.3383 44.7527Z" fill="white"/>
<path d="M3.50268 24.4324V15.4415H12.9299C24.3898 15.4415 30.5936 15.854 32.263 16.0603C38.2433 16.6427 41.6288 19.8217 42.5739 21.3384C43.4872 22.2994 44.3784 25.8885 44.7098 27.5629C44.8276 27.0387 44.8816 26.4951 44.8939 26.2889C47.781 26.6092 50.1721 29.1888 51.0068 30.4386C49.6222 30.5259 48.2204 30.7904 47.6926 30.9118C48.6942 32.3969 50.3194 33.0837 51.0068 33.2414C53.6288 34.3771 55.0208 35.1464 55.389 35.3891C57.1271 36.5539 56.8743 37.379 56.5306 37.6459C55.8825 38.403 54.542 38.3011 53.3268 38.5923C52.1484 39.1383 51.9768 39.3038 51.5224 39.1383C50.8227 38.8835 50.8227 38.7015 50.0494 38.0827C49.5486 37.7624 48.7604 38.0827 46.4406 36.9543C44.673 35.8186 41.4078 31.4335 39.9962 29.3829C34.0747 27.0242 23.1795 26.9077 21.3259 27.5629C25.2147 28.8151 30.8636 29.3829 34.988 34.297C36.844 34.5591 39.9594 34.018 41.2851 33.7146C45.7924 36.3937 49.006 40.8492 50.0494 42.742C42.8317 41.1113 37.0011 43.1788 34.988 44.4164C33.9569 51.0851 28.8873 53.7472 26.4814 54.2446L33.1099 71.1346L46.1828 66.1477L33.1099 80.708L17.2752 48.8573C24.9053 49.3815 27.1075 46.1151 27.2548 44.4164C27.7458 42.0747 27.9544 36.947 24.8611 35.1707C20.9945 32.9502 14.0346 32.0038 8.98959 30.2202C4.95358 28.7932 3.64998 25.7671 3.50268 24.4324Z" fill="white"/>
</svg>
