<svg width="48" height="54" viewBox="0 0 48 54" fill="none" xmlns="http://www.w3.org/2000/svg">
<path d="M0.702881 28.7422L14.2211 53.6318L11.1591 34.5178L0.702881 28.7422Z" fill="white"/>
<path d="M28.3468 31.5672C27.7103 32.2037 26.7457 34.9953 26.343 36.3115C26.2918 36.4765 26.2628 36.8517 26.2546 37.0187C26.0896 37.3959 26.343 37.5884 26.4904 37.6375C30.8221 39.5824 34.093 39.936 34.6529 40.0244C35.1008 40.0951 35.3306 39.8181 35.3895 39.6708C35.9789 38.8929 36.3816 38.1483 36.5093 37.8733L36.745 37.225C36.9808 36.6592 37.079 36.3213 37.0987 36.2231C37.1694 36.0345 37.1085 35.9481 37.0692 35.9284C36.6449 35.9756 35.6744 36.4981 35.2422 36.7535L35.3601 36.1936C35.7137 35.0149 36.195 33.7773 36.3914 33.3058C36.415 33.188 36.6566 32.412 36.7745 32.0387C36.7745 31.9444 37.2263 30.9779 37.4523 30.5064C37.6409 30.1292 37.4326 30.251 37.3049 30.3591L36.7156 30.919C36.2912 31.2018 34.8689 32.8835 34.2108 33.6889C33.9515 33.9954 33.9063 34.4059 33.9162 34.5729L34.0635 37.0777C32.4605 37.5727 30.5274 36.8714 29.7612 36.4589C27.9696 35.7752 28.0718 32.9129 28.3468 31.5672Z" fill="white"/>
<path d="M46.7051 19.1319C47.7424 21.3715 46.5676 24.0137 45.8506 25.0549C45.3319 23.6405 42.8645 22.6386 41.6956 22.3144C42.8272 20.4757 44.8978 19.1909 45.7916 18.7783C46.2631 18.4247 46.5971 18.8667 46.7051 19.1319Z" fill="white"/>
<path d="M31.6178 28.9446C35.036 28.3081 40.1928 24.3477 40.517 23.7584C40.5464 23.5226 40.016 23.338 39.6329 23.2869C38.7489 23.169 36.1852 22.9726 35.0655 22.9922C34.594 22.8508 34.26 23.4047 34.152 23.6994C34.1048 24.2652 32.4429 27.432 31.6178 28.9446Z" fill="white"/>
<path d="M41.784 23.7948C40.8175 23.4648 40.7527 24.0698 40.8411 24.4136C40.9825 26.276 40.4089 29.8848 40.1044 31.4564L42.1082 29.8062C43.3812 28.7218 44.2102 26.9969 44.4656 26.2701C44.7956 25.3507 44.387 24.9244 44.1415 24.8262C43.4107 24.2604 42.2654 23.9029 41.784 23.7948Z" fill="white"/>
<path d="M3.50574 7.34494V0.0664673H11.0494C20.2197 0.0664673 25.184 0.400432 26.5199 0.567415C31.3054 1.0389 34.0144 3.61239 34.7708 4.8402C35.5016 5.61815 36.2147 8.52364 36.4799 9.87915C36.5742 9.45482 36.6174 9.01477 36.6272 8.84778C38.9375 9.1071 40.8509 11.1954 41.5188 12.2071C40.4109 12.2778 39.2891 12.4919 38.8668 12.5902C39.6683 13.7924 40.9688 14.3484 41.5188 14.4761C43.6169 15.3955 44.7308 16.0182 45.0255 16.2147C46.4163 17.1576 46.214 17.8256 45.939 18.0416C45.4203 18.6546 44.3477 18.5721 43.3753 18.8078C42.4323 19.2498 42.295 19.3838 41.9314 19.2498C41.3715 19.0435 41.3715 18.8962 40.7527 18.3953C40.3519 18.1359 39.7212 18.3953 37.8649 17.4818C36.4504 16.5624 33.8376 13.0125 32.708 11.3525C27.9697 9.44303 19.2512 9.34873 17.768 9.87915C20.8798 10.8928 25.4001 11.3525 28.7005 15.3306C30.1856 15.5428 32.6786 15.1047 33.7394 14.8592C37.3462 17.028 39.9178 20.6348 40.7527 22.1671C34.977 20.847 30.3114 22.5207 28.7005 23.5226C27.8754 28.9211 23.8187 31.0761 21.8935 31.4788L27.1976 45.1518L37.6586 41.1147L27.1976 52.9017L14.5266 27.1176C20.6323 27.542 22.3944 24.8978 22.5123 23.5226C22.9052 21.6269 23.0722 17.4759 20.5969 16.0379C17.5028 14.2403 11.9335 13.4742 7.8964 12.0303C4.66676 10.8751 3.62361 8.42542 3.50574 7.34494Z" fill="white"/>
</svg>
