<svg width="12" height="7" viewBox="0 0 12 7" fill="none" xmlns="http://www.w3.org/2000/svg">
<path d="M6.77001 3.5C6.77266 4.42465 6.41768 5.31259 5.78301 5.96882C5.14835 6.62505 4.28588 6.99592 3.38501 7C2.48414 6.99592 1.62167 6.62505 0.987007 5.96882C0.352339 5.31259 -0.00264356 4.42465 1.48241e-05 3.5C-0.00264356 2.57535 0.352339 1.68741 0.987007 1.03118C1.62167 0.374951 2.48414 0.00407533 3.38501 0C4.28588 0.00407533 5.14835 0.374951 5.78301 1.03118C6.41768 1.68741 6.77266 2.57535 6.77001 3.5ZM10.48 3.5C10.48 5.31672 9.725 6.79472 8.79 6.79472C7.85501 6.79472 7.09501 5.31672 7.09501 3.5C7.09501 1.68328 7.85501 0.205279 8.79 0.205279C9.725 0.205279 10.48 1.68328 10.48 3.5ZM12 3.5C12 5.12683 11.735 6.45088 11.405 6.45088C11.075 6.45088 10.81 5.12683 10.81 3.5C10.81 1.87317 11.075 0.54912 11.405 0.54912C11.735 0.54912 12 1.87317 12 3.5Z" fill="white"/>
</svg>
