<svg width="15" height="15" viewBox="0 0 15 15" fill="none" xmlns="http://www.w3.org/2000/svg">
<path fill-rule="evenodd" clip-rule="evenodd" d="M8.469 12.914C10.0801 12.6178 11.3295 11.6173 11.9999 10.7906L10.8197 9.88568C10.3083 10.5162 9.35269 11.2642 8.18974 11.478C7.0857 11.681 5.66187 11.4279 4.0835 9.83171L3 10.8446C4.87971 12.7455 6.79899 13.221 8.469 12.914Z" fill="white"/>
<path fill-rule="evenodd" clip-rule="evenodd" d="M8.4691 2.086C10.0802 2.3822 11.3295 3.38273 12 4.20937L10.8198 5.11432C10.3084 4.48383 9.35279 3.73579 8.18983 3.52199C7.08579 3.31903 5.66196 3.5721 4.0836 5.16829L3.00009 4.1554C4.87981 2.25447 6.79908 1.77897 8.4691 2.086Z" fill="white"/>
</svg>
