<svg width="195" height="23" viewBox="0 0 195 23" fill="none" xmlns="http://www.w3.org/2000/svg">
<path d="M7.18994 22.27C6.58994 22.27 5.88994 22.23 5.08994 22.15C4.28994 22.09 3.48994 22.01 2.68994 21.91C1.90994 21.79 1.21994 21.69 0.619941 21.61L0.859941 19.63C1.43994 19.69 2.10994 19.76 2.86994 19.84C3.64994 19.92 4.40994 19.99 5.14994 20.05C5.90994 20.11 6.54994 20.14 7.06994 20.14C8.52994 20.14 9.61994 19.81 10.3399 19.15C11.0599 18.49 11.4199 17.46 11.4199 16.06C11.4199 15.3 11.2699 14.7 10.9699 14.26C10.6899 13.8 10.2099 13.44 9.52994 13.18C8.86994 12.9 7.97994 12.65 6.85994 12.43C5.41994 12.13 4.21994 11.78 3.25994 11.38C2.31994 10.96 1.60994 10.37 1.12994 9.60999C0.669941 8.84999 0.439941 7.81999 0.439941 6.51999C0.439941 5.17999 0.709941 4.09999 1.24994 3.27999C1.80994 2.45999 2.58994 1.85999 3.58994 1.47999C4.60994 1.09999 5.78994 0.90999 7.12994 0.90999C7.72994 0.90999 8.40994 0.94999 9.16994 1.02999C9.94994 1.08999 10.7099 1.16999 11.4499 1.26999C12.2099 1.34999 12.8599 1.43999 13.3999 1.53999L13.1899 3.54999C12.6099 3.46999 11.9399 3.39999 11.1799 3.33999C10.4199 3.25999 9.68994 3.18999 8.98994 3.12999C8.28994 3.06999 7.72994 3.03999 7.30994 3.03999C5.84994 3.03999 4.73994 3.30999 3.97994 3.84999C3.23994 4.38999 2.86994 5.22999 2.86994 6.36999C2.86994 7.24999 3.02994 7.91999 3.34994 8.37999C3.68994 8.83999 4.22994 9.19999 4.96994 9.45999C5.70994 9.71999 6.67994 9.98999 7.87994 10.27C8.91994 10.51 9.80994 10.77 10.5499 11.05C11.3099 11.33 11.9299 11.68 12.4099 12.1C12.9099 12.5 13.2699 13.01 13.4899 13.63C13.7299 14.23 13.8499 14.98 13.8499 15.88C13.8499 17.4 13.5799 18.63 13.0399 19.57C12.4999 20.51 11.7299 21.2 10.7299 21.64C9.72994 22.06 8.54994 22.27 7.18994 22.27Z" fill="white"/>
<path d="M31.9397 22.33C30.8997 22.33 30.0697 22.17 29.4497 21.85C28.8497 21.53 28.4197 20.98 28.1597 20.2C27.8997 19.4 27.7697 18.28 27.7697 16.84V9.00999H25.6397V6.99999H27.7697V2.40999H30.0797V6.99999H34.7897V9.00999H30.0797V16.15C30.0797 17.21 30.1197 18.04 30.1997 18.64C30.2997 19.22 30.4997 19.63 30.7997 19.87C31.0997 20.11 31.5697 20.23 32.2097 20.23C32.4097 20.23 32.6697 20.22 32.9897 20.2C33.3097 20.18 33.6297 20.16 33.9497 20.14C34.2897 20.1 34.5897 20.07 34.8497 20.05L34.9997 22C34.5597 22.06 34.0397 22.13 33.4397 22.21C32.8397 22.29 32.3397 22.33 31.9397 22.33Z" fill="white"/>
<path d="M50.4073 22.3C49.0273 22.3 47.9773 21.91 47.2573 21.13C46.5373 20.35 46.1773 19.21 46.1773 17.71C46.1773 16.73 46.3473 15.93 46.6873 15.31C47.0273 14.69 47.5373 14.22 48.2173 13.9C48.9173 13.56 49.7773 13.35 50.7973 13.27L55.4173 12.82V11.53C55.4173 10.51 55.1873 9.78999 54.7273 9.36999C54.2873 8.94999 53.6273 8.73999 52.7473 8.73999C52.2473 8.73999 51.6473 8.75999 50.9473 8.79999C50.2673 8.83999 49.5873 8.88999 48.9073 8.94999C48.2273 9.00999 47.6273 9.06999 47.1073 9.12999L46.9873 7.35999C47.4673 7.25999 48.0473 7.15999 48.7273 7.05999C49.4073 6.95999 50.1173 6.87999 50.8573 6.81999C51.5973 6.73999 52.2773 6.69999 52.8973 6.69999C54.0373 6.69999 54.9673 6.87999 55.6873 7.23999C56.4073 7.57999 56.9273 8.10999 57.2473 8.82999C57.5873 9.52999 57.7573 10.43 57.7573 11.53V19.12C57.7973 19.56 57.9673 19.88 58.2673 20.08C58.5873 20.28 58.9873 20.41 59.4673 20.47L59.3773 22.3C58.9373 22.3 58.5373 22.27 58.1773 22.21C57.8173 22.17 57.4773 22.1 57.1573 22C56.8973 21.9 56.6473 21.78 56.4073 21.64C56.1873 21.5 55.9673 21.33 55.7473 21.13C55.3673 21.29 54.8773 21.46 54.2773 21.64C53.6973 21.82 53.0673 21.97 52.3873 22.09C51.7273 22.23 51.0673 22.3 50.4073 22.3ZM50.7973 20.35C51.3373 20.35 51.8973 20.3 52.4773 20.2C53.0573 20.1 53.6073 19.98 54.1273 19.84C54.6473 19.7 55.0773 19.57 55.4173 19.45V14.56L51.0673 14.98C50.1673 15.06 49.5173 15.32 49.1173 15.76C48.7373 16.2 48.5473 16.83 48.5473 17.65C48.5473 18.49 48.7373 19.15 49.1173 19.63C49.4973 20.11 50.0573 20.35 50.7973 20.35Z" fill="white"/>
<path d="M71.7959 22V6.99999H74.1059V9.00999C74.4859 8.74999 74.9659 8.46999 75.5459 8.16999C76.1259 7.84999 76.7659 7.54999 77.4659 7.26999C78.1659 6.98999 78.8659 6.78999 79.5659 6.66999V9.03999C78.8859 9.17999 78.1959 9.36999 77.4959 9.60999C76.7959 9.82999 76.1459 10.07 75.5459 10.33C74.9659 10.59 74.4859 10.82 74.1059 11.02V22H71.7959Z" fill="white"/>
<path d="M91.7963 22V0.48999H94.1063V13.15L96.4163 13.06L100.616 6.99999H103.286L98.4563 13.93L103.526 22H100.856L96.4763 15.1L94.1063 15.22V22H91.7963Z" fill="white"/>
<path d="M115.84 22V6.99999H118.15V9.00999C118.53 8.74999 119.01 8.46999 119.59 8.16999C120.17 7.84999 120.81 7.54999 121.51 7.26999C122.21 6.98999 122.91 6.78999 123.61 6.66999V9.03999C122.93 9.17999 122.24 9.36999 121.54 9.60999C120.84 9.82999 120.19 10.07 119.59 10.33C119.01 10.59 118.53 10.82 118.15 11.02V22H115.84Z" fill="white"/>
<path d="M141.15 22.3C139.65 22.3 138.46 22.01 137.58 21.43C136.72 20.85 136.1 19.99 135.72 18.85C135.34 17.71 135.15 16.29 135.15 14.59C135.15 12.69 135.41 11.17 135.93 10.03C136.45 8.86999 137.18 8.02999 138.12 7.50999C139.06 6.96999 140.17 6.69999 141.45 6.69999C143.45 6.69999 144.96 7.25999 145.98 8.37999C147 9.47999 147.51 11.26 147.51 13.72L147.39 15.49H137.52C137.54 17.05 137.83 18.23 138.39 19.03C138.95 19.83 139.96 20.23 141.42 20.23C141.98 20.23 142.59 20.22 143.25 20.2C143.93 20.16 144.6 20.12 145.26 20.08C145.92 20.04 146.48 20 146.94 19.96L147 21.79C146.52 21.87 145.93 21.95 145.23 22.03C144.55 22.11 143.85 22.17 143.13 22.21C142.41 22.27 141.75 22.3 141.15 22.3ZM137.52 13.6H145.17C145.17 11.76 144.87 10.48 144.27 9.75999C143.69 9.01999 142.75 8.64999 141.45 8.64999C140.19 8.64999 139.22 9.02999 138.54 9.78999C137.86 10.55 137.52 11.82 137.52 13.6Z" fill="white"/>
<path d="M160.587 22V6.99999H162.896V8.04999C163.236 7.84999 163.656 7.64999 164.156 7.44999C164.676 7.24999 165.227 7.07999 165.807 6.93999C166.387 6.77999 166.946 6.69999 167.486 6.69999C168.866 6.69999 169.917 6.94999 170.637 7.44999C171.377 7.92999 171.887 8.70999 172.167 9.78999C172.447 10.87 172.587 12.29 172.587 14.05V22H170.247V14.14C170.247 12.84 170.167 11.8 170.007 11.02C169.867 10.24 169.567 9.67999 169.107 9.33999C168.667 8.97999 167.986 8.79999 167.066 8.79999C166.566 8.79999 166.047 8.85999 165.507 8.97999C164.987 9.07999 164.496 9.21999 164.036 9.39999C163.576 9.55999 163.196 9.71999 162.896 9.87999V22H160.587Z" fill="white"/>
<path d="M191.249 22.33C190.209 22.33 189.379 22.17 188.759 21.85C188.159 21.53 187.729 20.98 187.469 20.2C187.209 19.4 187.079 18.28 187.079 16.84V9.00999H184.949V6.99999H187.079V2.40999H189.389V6.99999H194.099V9.00999H189.389V16.15C189.389 17.21 189.429 18.04 189.509 18.64C189.609 19.22 189.809 19.63 190.109 19.87C190.409 20.11 190.879 20.23 191.519 20.23C191.719 20.23 191.979 20.22 192.299 20.2C192.619 20.18 192.939 20.16 193.259 20.14C193.599 20.1 193.899 20.07 194.159 20.05L194.309 22C193.869 22.06 193.349 22.13 192.749 22.21C192.149 22.29 191.649 22.33 191.249 22.33Z" fill="white"/>
</svg>
