<svg width="197" height="19" viewBox="0 0 197 19" fill="none" xmlns="http://www.w3.org/2000/svg">
<path d="M0.5 18.1251V17.1001H8.2C9.33333 17.1001 9.9 16.5335 9.9 15.4001V13.3751C9.9 12.4251 9.475 11.8668 8.625 11.7001L3.25 10.6001C1.41667 10.2335 0.5 9.00846 0.5 6.92512V5.57512C0.5 3.02512 1.775 1.75012 4.325 1.75012H10.375L11.5 2.62512V3.65012H4.3C3.16667 3.65012 2.6 4.21679 2.6 5.35012V7.05012C2.6 8.00012 3.025 8.55845 3.875 8.72512L9.25 9.80012C11.0833 10.1668 12 11.4001 12 13.5001V15.1751C12 17.7251 10.725 19.0001 8.175 19.0001H1.625L0.5 18.1251Z" fill="white"/>
<path d="M22.102 6.35012L22.352 6.00012H24.002L26.652 17.2501H27.002L30.177 6.00012H32.452L35.627 17.2501H35.977L38.652 6.00012H40.277L40.527 6.35012L37.477 19.0001H34.277L31.302 8.30012L28.352 19.0001H25.152L22.102 6.35012Z" fill="white"/>
<path d="M50.9309 15.2501V9.75012C50.9309 7.25012 52.1809 6.00012 54.6809 6.00012H58.1809C60.6809 6.00012 61.9309 7.25012 61.9309 9.75012V15.2501C61.9309 17.7501 60.6809 19.0001 58.1809 19.0001H54.6809C52.1809 19.0001 50.9309 17.7501 50.9309 15.2501ZM52.9309 15.5001C52.9309 16.6668 53.5142 17.2501 54.6809 17.2501H58.1809C59.3475 17.2501 59.9309 16.6668 59.9309 15.5001V9.50012C59.9309 8.33345 59.3475 7.75012 58.1809 7.75012H54.6809C53.5142 7.75012 52.9309 8.33345 52.9309 9.50012V15.5001Z" fill="white"/>
<path d="M73.6305 19.0001V7.50012C74.2138 6.50012 75.2971 6.00012 76.8805 6.00012H79.3805L80.3805 6.75012V7.75012H77.1555C76.4555 7.75012 75.9471 7.94179 75.6305 8.32512V19.0001H73.6305Z" fill="white"/>
<path d="M90.8322 15.2501V9.75012C90.8322 7.25012 92.0822 6.00012 94.5822 6.00012H99.5822V0.500122H101.582V19.0001H94.5822C92.0822 19.0001 90.8322 17.7501 90.8322 15.2501ZM92.8322 15.5001C92.8322 16.6668 93.4156 17.2501 94.5822 17.2501H99.5822V7.75012H94.5822C93.4156 7.75012 92.8322 8.33345 92.8322 9.50012V15.5001Z" fill="white"/>
<path d="M113.295 19.0001V0.370117H122.259C125.193 0.370117 126.66 1.83712 126.66 4.77112V7.82212C126.66 10.0901 125.76 11.4671 123.96 11.9531L127.2 18.2981L126.795 19.0001H123.987L120.531 12.1961H116.589V19.0001H113.295ZM116.589 9.19912H122.178C122.97 9.19912 123.366 8.80312 123.366 8.01112V4.52812C123.366 3.75412 122.97 3.36712 122.178 3.36712H116.589V9.19912Z" fill="white"/>
<path d="M138.851 14.7341V9.09112C138.851 6.24712 140.273 4.82512 143.117 4.82512H146.627C149.453 4.82512 150.866 6.24712 150.866 9.09112V13.0871H142.01V15.0041C142.01 15.8321 142.424 16.2461 143.252 16.2461H150.326V17.9471L148.895 19.0001H143.117C140.273 19.0001 138.851 17.5781 138.851 14.7341ZM142.01 10.6301H147.707V8.82112C147.707 7.99312 147.293 7.57912 146.465 7.57912H143.252C142.424 7.57912 142.01 7.99312 142.01 8.82112V10.6301Z" fill="white"/>
<path d="M163.343 19.0001V4.82512H171.119C173.945 4.82512 175.358 6.24712 175.358 9.09112V19.0001H172.199V8.82112C172.199 7.99312 171.785 7.57912 170.957 7.57912H166.502V19.0001H163.343Z" fill="white"/>
<path d="M187.827 14.7341V0.370117H190.986V4.82512H195.819V7.57912H190.986V15.0041C190.986 15.8321 191.4 16.2461 192.228 16.2461H196.089V17.9471L194.658 19.0001H192.093C189.249 19.0001 187.827 17.5781 187.827 14.7341Z" fill="white"/>
</svg>
