<svg width="12" height="9" viewBox="0 0 12 9" fill="none" xmlns="http://www.w3.org/2000/svg">
<path d="M11.9765 1.07203C11.5272 1.25456 11.0513 1.37504 10.564 1.4296C11.0771 1.14504 11.4612 0.69879 11.6455 0.173252C11.17 0.429321 10.643 0.61572 10.082 0.719531C9.71188 0.354313 9.22143 0.112082 8.68682 0.0304544C8.15221 -0.0511737 7.60335 0.0323687 7.12547 0.268109C6.64759 0.503848 6.26743 0.878594 6.04403 1.33415C5.82062 1.78971 5.76648 2.30059 5.89 2.78746C3.845 2.69841 2.0335 1.79179 0.82 0.4224C0.599397 0.768352 0.484332 1.16293 0.487 1.56433C0.487 2.35329 0.922 3.04675 1.581 3.45416C1.19043 3.44268 0.808486 3.34524 0.467 3.16994V3.19763C0.466778 3.72194 0.663134 4.23018 1.02275 4.63611C1.38237 5.04205 1.88311 5.32068 2.44 5.42473C2.07915 5.51395 1.70121 5.52735 1.334 5.46395C1.49206 5.91519 1.79883 6.30964 2.21151 6.59226C2.62418 6.87489 3.12218 7.03159 3.636 7.0405C2.76576 7.67073 1.69124 8.01278 0.585 8.01171C0.39 8.01171 0.1955 8.0011 0 7.9808C1.12785 8.64719 2.43926 9.00092 3.7785 9C8.305 9 10.7775 5.54146 10.7775 2.54754C10.7775 2.45065 10.7775 2.35376 10.77 2.25686C11.253 1.93614 11.6696 1.53794 12 1.08126L11.9765 1.07203Z" fill="white"/>
</svg>
